<svg id="String-Integer--Streamline-Carbon" xmlns="http://www.w3.org/2000/svg" viewBox="0 0 16 16" height="16" width="16">
  <desc>
    String Integer Streamline Icon: https://streamlinehq.com
  </desc>
  <defs></defs>
  <title>string-integer</title>
  <path d="M13 6h-2v1h2v1h-1.5v1h1.5v1h-2v1h2a1.00135 1.00135 0 0 0 1 -1v-3a1.00115 1.00115 0 0 0 -1 -1Z" fill="#000000" stroke-width="0.5"></path>
  <path d="M9.5 11h-3v-2a1.001 1.001 0 0 1 1 -1h1v-1h-2v-1h2a1.00115 1.00115 0 0 1 1 1v1a1.00115 1.00115 0 0 1 -1 1h-1v1h2Z" fill="#000000" stroke-width="0.5"></path>
  <path d="m4 10 0 -4 -1 0 0 0.5 -1 0 0 1 1 0 0 2.5 -1 0 0 1 3 0 0 -1 -1 0z" fill="#000000" stroke-width="0.5"></path>
  <path id="_Transparent_Rectangle_" d="M0 0h16v16H0Z" fill="none" stroke-width="0.5"></path>
</svg>