<svg xmlns="http://www.w3.org/2000/svg" width="94.837" height="94.787" viewBox="0 0 94.837 94.787"><path d="M69.65 108.15c-.534-.158-6.271-5.79-26.27-25.785-25.557-25.552-25.587-25.583-26.375-27.184-1.462-2.97-1.422-2.348-1.36-21.437l.054-16.991.59-.955a5.05 5.05 0 0 1 1.546-1.546l.955-.59 16.991-.055c19.09-.061 18.468-.1 21.437 1.362 1.6.787 1.657.843 27.018 26.178 15.036 15.021 25.548 25.67 25.742 26.074.18.377.366 1.148.414 1.714.188 2.21 1.147 1.129-18.375 20.698-14.301 14.336-17.973 17.916-18.757 18.29-1.055.504-2.396.589-3.61.227M37.104 40.076a8.227 8.227 0 0 0 6.536-8.716c-.348-4.613-4.815-8.193-9.319-7.468-2.765.446-5.127 2.192-6.292 4.65-.584 1.232-.623 1.45-.623 3.471 0 2.1.02 2.196.735 3.644 1.683 3.405 5.312 5.195 8.963 4.42" style="fill:#000;stroke-width:.195122" transform="translate(-15.622 -13.585)"/></svg>