<svg xmlns="http://www.w3.org/2000/svg" width="347.871" height="491.562" viewBox="0 0 347.871 491.562"><path d="M129.413 492.099c-5.632-2.006-8.7-4.554-11.558-9.597l-2.5-4.411V163.134L90.31 140.613a121050 121050 0 0 0-54-48.522C5.43 64.363 2.855 61.353 2.855 52.993c0-2.623 1.034-6.154 2.784-9.503 4.9-9.38 16.288-13.367 25.716-9.004 2.254 1.044 27.911 23.29 58.793 50.978l54.793 49.127h63.935l54.74-49.132c31.038-27.858 56.47-49.93 58.739-50.978 5.787-2.67 11.314-2.39 17.601.894 9.387 4.904 13.375 16.312 8.99 25.716-2.36 5.059-4.53 7.112-57.091 54.007-23.925 21.346-45.903 41.102-48.84 43.902l-5.34 5.091.34 157 .34 157-2.5 4.461c-4.146 7.4-13.082 11.877-21.025 10.535-4.981-.842-10.949-4.784-14.016-9.26l-2.46-3.588-.268-75.324-.268-75.324h-41.963v74.099c0 82.619.42 77.578-7.032 84.311-3.68 3.324-9.263 5.621-13.468 5.54-1.1-.02-3.774-.67-5.942-1.442m40.392-388.57c-25.203-3.708-43.95-25.223-43.95-50.438 0-30.701 28.087-55.084 58.25-50.569 10.962 1.642 21.988 7.43 29.552 15.517 15.012 16.047 18.346 37.53 8.931 57.552-3.686 7.84-13.903 18.532-21.282 22.271-9.887 5.01-21.62 7.122-31.5 5.668" style="fill:#000" transform="translate(-2.855 -1.982)"/></svg>