<svg version="1.1" id="svg668" width="347.87094" height="491.56201" viewBox="0 0 347.87094 491.56201" xmlns:inkscape="http://www.inkscape.org/namespaces/inkscape" xmlns:sodipodi="http://sodipodi.sourceforge.net/DTD/sodipodi-0.dtd" xmlns="http://www.w3.org/2000/svg" xmlns:svg="http://www.w3.org/2000/svg"><defs id="defs672" /><sodipodi:namedview id="namedview670" pagecolor="#ffffff" bordercolor="#000000" borderopacity="0.25" showgrid="false" /><g id="g674" transform="translate(-2.8548554,-1.9818997)"><path style="fill:#000000" d="m 129.41268,492.09892 c -5.63142,-2.0061 -8.70032,-4.55421 -11.55782,-9.59646 l -2.5,-4.41142 V 320.6126 163.13416 L 90.310185,140.6126 c -13.77458,-12.38686 -38.07458,-34.22156 -54,-48.521558 C 5.4306854,64.363259 2.8548554,61.35301 2.8548554,52.993344 c 0,-2.623034 1.03457,-6.154306 2.78435,-9.503765 4.8998596,-9.379405 16.2879896,-13.366548 25.7156496,-9.003402 2.25441,1.043348 27.9116,23.289993 58.79327,50.978038 L 144.9414,134.59104 h 31.96711 31.96711 l 54.73962,-49.131561 c 31.03858,-27.858686 56.47153,-49.931046 58.73962,-50.978038 5.78697,-2.671375 11.31399,-2.390667 17.60146,0.893946 9.38702,4.903836 13.37475,16.311571 8.98926,25.715655 -2.35921,5.059002 -4.52957,7.112133 -57.09072,54.007058 -23.925,21.34582 -45.90317,41.10161 -48.84038,43.90176 l -5.34038,5.09118 0.34038,157 0.34038,157 -2.5,4.4613 c -4.14629,7.39914 -13.08226,11.87639 -21.02525,10.53443 -4.98093,-0.84152 -10.94835,-4.78405 -14.01559,-9.25978 l -2.45916,-3.58842 -0.2685,-75.32377 -0.26851,-75.32376 h -20.98149 -20.9815 v 74.09887 c 0,82.61912 0.42044,77.57825 -7.03201,84.31109 -3.67921,3.32394 -9.2632,5.62113 -13.46799,5.54057 -1.1,-0.0211 -3.77398,-0.67027 -5.94218,-1.44265 z m 40.39278,-388.56923 c -25.20308,-3.708688 -43.9506,-25.223739 -43.9506,-50.438648 0,-30.70112 28.08709,-55.0843858 58.25,-50.5686221 10.96255,1.641231 21.98786,7.430028 29.5521,15.5162181 15.01167,16.047521 18.34559,37.530541 8.93149,57.552404 -3.68646,7.840341 -13.90358,18.53224 -21.28243,22.27138 -9.88725,5.010248 -21.62037,7.121148 -31.50056,5.667268 z" id="path795" /></g></svg>