<svg xmlns="http://www.w3.org/2000/svg" width="682.441" height="529.5" viewBox="0 0 682.441 529.5"><path d="M30.036 527.28c-9.345-3.229-17.145-8.848-21.924-15.795-8.49-12.338-13.484.708 53.56-139.887 33.133-69.48 61.617-128.467 63.298-131.081 3.766-5.858 13.092-14.748 19.333-18.431 2.566-1.515 8.266-3.857 12.666-5.205 7.637-2.34 18.664-2.452 242.667-2.452h234.667l9.468 2.979c26.918 8.466 43.45 35.453 37.95 61.948-2.357 11.35-108.444 223.537-116.041 232.094-6.685 7.53-14.496 12.362-25.544 15.8-7.785 2.424-16.83 2.511-255.619 2.47-234.69-.042-247.908-.169-254.481-2.44M.356 223.005C.297 17.556-.175 29.175 8.712 17.522 14.497 9.937 22.12 4.768 31.002 2.404c10.937-2.91 173.18-2.902 184.359.01 14.947 3.893 17.064 6.113 50.231 52.682l17.568 24.667 130.238.666c129.968.666 130.25.673 136.472 3.548 8.354 3.86 17.144 12.185 21.152 20.03 3.177 6.219 3.294 7.447 3.7 38.756l.419 32.333-212.42.026c-135.472.017-215.8.513-221.752 1.37-20.903 3.01-35.688 14.403-45.915 35.384-3.187 6.538-24.945 52.04-48.35 101.117C23.296 362.07 3.304 403.77 2.277 405.66.668 408.62.402 383.364.356 223.005" style="fill:#000;stroke-width:1.33333" transform="translate(-.333 -.226)"/></svg>