<svg xmlns="http://www.w3.org/2000/svg" width="511.415" height="511.514" viewBox="0 0 511.415 511.514"><path d="M272.302 656.136c-51.964-5.358-99.624-25.018-138.778-57.247-48.968-40.307-81.536-97.698-90.787-159.986-10.14-68.277 7.3-136.313 49.392-192.68 9.162-12.27 36.436-39.544 48.706-48.707 69.892-52.191 158.506-66.17 239.82-37.833 53.423 18.617 101.617 57.27 132.323 106.124 18.301 29.12 31.405 65.39 36.445 100.883 2.552 17.972 2.552 51.029 0 69-6.22 43.8-23.09 84.505-49.905 120.412-9.216 12.34-36.464 39.588-48.804 48.803-35.216 26.3-74.81 42.983-117.198 49.383-15.308 2.311-47.342 3.278-61.214 1.848m62.29-149.875c2.04-1.06 9.78-8.036 17.197-15.5l13.487-13.573 14.513 14.452c7.982 7.949 15.78 14.924 17.328 15.501 12.57 4.685 24.62-7.954 19.288-20.233-.768-1.77-7.731-9.5-15.473-17.178l-14.077-13.96 14.89-15.087c12.214-12.374 15.015-15.751 15.585-18.79.962-5.125-.16-10.113-3.047-13.544-3.367-4.001-7.521-5.506-13.593-4.922-5.027.483-5.265.665-19.75 15.126-8.064 8.05-15.088 14.637-15.608 14.637s-7.49-6.49-15.488-14.42c-8.998-8.924-15.613-14.69-17.351-15.124-1.545-.386-4.864-.471-7.375-.188-8.544.963-14.428 9.944-12.142 18.531.749 2.812 4.452 7.19 15.406 18.213 7.931 7.982 14.42 14.953 14.42 15.492s-6.495 7.283-14.433 14.988c-11.835 11.486-14.622 14.734-15.48 18.04-3.373 12.997 9.863 23.695 21.703 17.54m-51.602-38.264c9.3-7.096 8.761-18.793-1.177-25.557l-3.306-2.25H224.04c-53.624 0-54.525.033-58.235 2.118-4.364 2.453-8.004 8.273-8.004 12.8 0 6.567 4.721 13.264 10.62 15.064 1.584.484 27.216.798 56.96.699l54.078-.18zm79.53-81.858c4.414-1.539 68.35-66.981 70.182-71.836 4.381-11.61-7.786-23.455-19.585-19.066-1.548.576-14.392 12.6-28.543 26.721l-25.727 25.673-12.273-12.102c-8.983-8.859-13.164-12.294-15.6-12.817-11.109-2.387-20.975 7.963-18.062 18.947.874 3.294 4.48 7.479 19.73 22.894 17.505 17.696 23.115 22.624 25.761 22.633.606.002 2.458-.469 4.116-1.047m-80.102-25.51c5.107-3.814 6.884-7.155 6.884-12.939s-1.778-9.125-6.885-12.938c-2.712-2.025-3.763-2.062-58.615-2.062-54.851 0-55.903.037-58.615 2.062-4.063 3.033-6.36 6.516-7.033 10.657-.79 4.87.083 7.956 3.348 11.837 5.085 6.042 3.644 5.913 63.478 5.668 53.485-.219 54.737-.269 57.438-2.286" style="fill:#000" transform="translate(-39.922 -145.293)"/></svg>