<?xml version="1.0" encoding="UTF-8"?>
<!-- Created with Inkscape (http://www.inkscape.org/) -->
<svg id="svg322" width="22" height="22" version="1.1" viewBox="0 0 22 22" xmlns="http://www.w3.org/2000/svg">
 <g id="g328">
  <path id="path503" d="m2.9761 21.663c-0.089304-0.14-0.19201-0.96496-0.3254-2.6138-0.1072-1.3251-0.21179-2.4604-0.23241-2.5229-0.026968-0.081733-0.31765-0.11364-1.0353-0.11364-1.3343 0-1.2813 0.08279-1.2792-1.9976 0.001024-1.0335 0.047527-1.8103 0.13232-2.2105 0.45255-2.1357 2.2934-3.7383 4.517-3.9324 1.7692-0.15442 3.6928 0.836 4.5773 2.3566 0.62326 1.0716 0.70754 1.4715 0.75175 3.5671l0.0405 1.9198-0.212 0.14849c-0.16269 0.11395-0.42894 0.14849-1.1446 0.14849-0.8931 0-0.93457 0.0087-0.97811 0.20456-0.025011 0.11251-0.13095 1.2683-0.23543 2.5683-0.17153 2.1345-0.20794 2.3792-0.37544 2.5229-0.16412 0.14077-0.40926 0.1591-2.128 0.1591-1.9152 0-1.9443-0.0029-2.073-0.20456zm2.5759-7.5181c0.25904-0.25904 0.29231-0.58704 0.26082-2.5711-0.026627-1.6775-0.040732-1.8055-0.21849-1.9831-0.25784-0.25755-0.7219-0.26151-0.97533-0.008319-0.1889 0.18872-0.19978 0.28758-0.22793 2.0716-0.016262 1.0304-0.00554 1.9692 0.023829 2.0862 0.13118 0.52265 0.78606 0.75572 1.1371 0.40468zm6.3691-5.5621c-0.29332-0.11696-0.61994-0.42388-0.78146-0.7343-0.17856-0.34319-0.18709-4.3651-0.0096-4.5124 0.0898-0.074524 0.63764 0.2607 2.2819 1.3963 2.0135 1.3906 2.5298 1.6779 3.0176 1.6792 0.52501 0.0014 1.1328-0.33281 3.1224-1.7169 1.7314-1.2045 2.1392-1.4517 2.2469-1.3623 0.10964 0.090996 0.12712 0.47071 0.10445 2.2699-0.03027 2.4027-0.03442 2.4196-0.70816 2.8781l-0.30056 0.20456-4.3732-0.00581c-2.6789-0.0035-4.4612-0.04087-4.6004-0.09638zm-8.0537-1.3806c-0.68109-0.25964-0.99637-0.47985-1.5186-1.0607-0.51017-0.56743-0.77033-1.1166-0.87312-1.8429-0.42192-2.9815 2.6527-5.1741 5.336-3.8052 0.96369 0.49164 1.7463 1.5769 1.9236 2.6676 0.2548 1.5674-0.67542 3.275-2.1552 3.9563-0.75263 0.34649-1.9299 0.38336-2.7127 0.084947zm2.1277-1.7535c0.50382-0.25106 0.8694-0.73261 0.98143-1.2928 0.086824-0.43412-0.078643-0.57719-0.59088-0.51089-0.53267 0.06894-1.6252-0.15674-2.2583-0.46649-0.26368-0.12901-0.54808-0.22133-0.63201-0.20516-0.34538 0.066545-0.36853 1.0479-0.039844 1.6889 0.49083 0.95716 1.5431 1.283 2.5396 0.78642zm10.32-0.48376c-0.10839-0.029115-1.3475-0.83025-2.7535-1.7803-2.5173-1.7009-2.5557-1.7316-2.5066-2.0001 0.06373-0.34843 0.3018-0.67226 0.68689-0.93432l0.30419-0.207 4.4766 0.025175c4.3593 0.024515 4.4832 0.030086 4.7276 0.21262 0.34322 0.25633 0.56801 0.57806 0.63178 0.90422 0.05287 0.27038 0.02468 0.29282-2.5218 2.0078-1.4164 0.95391-2.6367 1.7547-2.7117 1.7796-0.07501 0.024882-0.22506 0.021419-0.33345-0.0077z" stroke-width=".090914"/>
 </g>
</svg>
