<svg xmlns="http://www.w3.org/2000/svg" width="22" height="22" viewBox="0 0 22 22"><path d="M2.976 21.663c-.09-.14-.192-.965-.325-2.614-.107-1.325-.212-2.46-.233-2.523-.027-.081-.317-.113-1.035-.113-1.334 0-1.281.082-1.28-1.998.002-1.033.048-1.81.133-2.21.453-2.136 2.294-3.739 4.517-3.933 1.77-.154 3.693.836 4.577 2.357.624 1.071.708 1.471.752 3.567l.04 1.92-.211.148c-.163.114-.43.149-1.145.149-.893 0-.935.008-.978.204-.025.113-.131 1.268-.235 2.568-.172 2.135-.208 2.38-.376 2.523-.164.141-.41.16-2.128.16-1.915 0-1.944-.003-2.073-.205m2.576-7.518c.259-.26.292-.587.26-2.571-.026-1.678-.04-1.806-.218-1.983-.258-.258-.722-.262-.975-.009-.189.19-.2.288-.228 2.072-.016 1.03-.005 1.97.024 2.086.131.523.786.756 1.137.405m6.37-5.562c-.294-.117-.62-.424-.782-.735-.179-.343-.187-4.365-.01-4.512.09-.074.638.26 2.282 1.396 2.013 1.391 2.53 1.678 3.018 1.68.525.001 1.132-.333 3.122-1.717 1.731-1.205 2.14-1.452 2.247-1.363.11.091.127.471.104 2.27-.03 2.403-.034 2.42-.708 2.878l-.3.205-4.374-.006c-2.679-.003-4.46-.04-4.6-.096zm-8.055-1.38c-.68-.26-.996-.48-1.518-1.062-.51-.567-.77-1.116-.873-1.842C1.054 1.317 4.128-.876 6.812.493c.963.492 1.746 1.577 1.923 2.668.255 1.567-.675 3.275-2.155 3.956-.753.347-1.93.384-2.713.085m2.128-1.754c.504-.251.87-.733.982-1.293.086-.434-.08-.577-.591-.511-.533.069-1.626-.157-2.259-.466-.263-.13-.548-.222-.632-.206-.345.067-.368 1.048-.04 1.69.491.956 1.544 1.282 2.54.786m10.32-.484c-.108-.03-1.347-.83-2.753-1.78-2.518-1.701-2.556-1.732-2.507-2 .064-.349.302-.673.687-.935l.304-.207 4.477.025c4.359.025 4.483.03 4.727.213.344.256.568.578.632.904.053.27.025.293-2.522 2.008-1.416.954-2.636 1.755-2.711 1.78a.7.7 0 0 1-.334-.008"/></svg>