<svg xmlns="http://www.w3.org/2000/svg" viewBox="0 0 16 16" fill="#000000" id="Trash-Bold--Streamline-Phosphor" height="16" width="16">
  <desc>
    Trash Bold Streamline Icon: https://streamlinehq.com
  </desc>
  <path d="M14.272 3.01090625h-2.56581875V2.1556375c0 -1.1021625 -0.893475 -1.9956375 -1.9956375 -1.9956375h-3.4210875c-1.1021625 0 -1.9956375 0.893475 -1.9956375 1.9956375v0.85526875H1.728c-0.6583875 0 -1.06988125 0.71273125 -0.7406875 1.2829125 0.15278125 0.26461875 0.43513125 0.4276375 0.7406875 0.4276375h0.28509375v9.6930875c0 0.78728125 0.63816875 1.42549375 1.42545 1.42545625h9.1229125c0.78725625 0 1.42545 -0.6382 1.42545 -1.42545625V4.72145625h0.28509375c0.6583875 0 1.06988125 -0.71273125 0.7406875 -1.2829125 -0.15278125 -0.26461875 -0.43513125 -0.4276375 -0.7406875 -0.4276375ZM6.0043625 2.1556375c0 -0.15745625 0.1276375 -0.2851 0.28509375 -0.28509375h3.4210875c0.15745625 -0.00000625 0.28509375 0.1276375 0.28509375 0.28509375v0.85526875H6.0043625Zm6.272 11.97381875H3.7236375V4.72145625h8.552725Zm-5.1316375 -7.127275v4.56145625c0 0.6583875 -0.712725 1.06988125 -1.28290625 0.7406875 -0.264625 -0.15278125 -0.4276375 -0.43513125 -0.4276375 -0.7406875v-4.56145625c0 -0.6583875 0.712725 -1.06988125 1.2829125 -0.7406875 0.26461875 0.15278125 0.42763125 0.43513125 0.42763125 0.7406875Zm3.42109375 0v4.56145625c0 0.6583875 -0.71273125 1.06988125 -1.2829125 0.7406875 -0.26461875 -0.15278125 -0.42763125 -0.43513125 -0.42763125 -0.7406875v-4.56145625c0 -0.6583875 0.712725 -1.06988125 1.28290625 -0.7406875 0.264625 0.15278125 0.4276375 0.43513125 0.4276375 0.7406875Z" stroke-width="0.0625"></path>
</svg>